<svg xmlns="http://www.w3.org/2000/svg" width="105" height="131" viewBox="0 0 105 131" fill="none"><path d="M0 122.185L16 130.995L24.0726 130.566V95.336H44.3054C69.1164 95.336 97.5 71.5709 97.5 50.9951C97.5 31.0115 69.7071 18.5664 44.4531 18.5664H0L0 122.185ZM24.0726 76.0925V46.191H40.9086C52.428 46.191 58.6308 52.1121 58.6308 61.1417C58.6308 70.1714 52.5757 76.0925 40.9086 76.0925H24.0726Z" fill="#4548C4"></path><path d="M15.8069 130.995H45.0154V97.763H63.9414C89.5733 97.763 103.582 82.8606 103.582 61.8484C103.582 41.5812 90.0204 26.6789 64.0904 26.6789H15.8069V130.995ZM45.0154 75.1114V49.3304H58.7255C68.7101 49.3304 74.0749 54.5463 74.0749 62.2955C74.0749 70.0447 68.8591 75.1114 58.7255 75.1114H45.0154Z" fill="#A7AAF8"></path></svg>