<svg xmlns="http://www.w3.org/2000/svg" width="125" height="133" viewBox="0 0 125 133" fill="none"><path d="M61.9367 131.155C90.3699 131.155 109.019 106.505 109.019 72.1785C109.019 57.6304 111.206 45.3336 103.643 36.6216C93.2843 24.6895 70.688 18.9951 54.5093 18.9951C26.6654 18.9951 0 37.9997 0 72.1785C0 106.652 15.782 131.155 61.9367 131.155ZM54.5093 101.643C40.3663 101.643 29.6118 90.4465 29.6118 72.1785C29.6118 54.2052 40.0717 43.3033 54.5093 43.3033C68.6522 43.3033 79.2594 54.3525 79.2594 72.1785C79.2594 90.5938 68.7996 101.643 54.5093 101.643Z" fill="#EF4068"></path><path d="M68.9157 132.932C97.6771 132.932 124.203 113.112 124.203 78.39C124.203 43.5185 97.3791 24.5926 69.0647 24.5926C40.8993 24.5926 13.9262 43.8166 13.9262 78.39C13.9262 113.261 40.0052 132.932 68.9157 132.932ZM69.0647 108.195C54.7585 108.195 43.8798 96.8688 43.8798 78.39C43.8798 60.2091 54.4604 49.1814 69.0647 49.1814C83.3709 49.1814 94.1006 60.3582 94.1006 78.39C94.1006 97.0178 83.52 108.195 69.0647 108.195Z" fill="#FFCFDA"></path></svg>