<svg xmlns="http://www.w3.org/2000/svg" width="1192" height="507" viewBox="0 0 1192 507" fill="none"><path d="M759.998 234.105C754.998 240.605 463.998 549.605 406.499 379.531" stroke="#161453" stroke-width="2" stroke-linecap="round"></path><path d="M370.098 119.978C354.099 -41.522 25.7308 133.188 25.7308 133.188" stroke="#161453" stroke-width="2" stroke-linecap="round"></path><path d="M946.998 123.969C946.998 123.969 1021.72 77.0013 1063.76 122.105M1191 458.529C1107.16 427.926 1061.93 548.126 996.12 488.865C922.916 422.92 1072.6 256.56 1081.95 172.105" stroke="#161453" stroke-width="2" stroke-linecap="round"></path><path fill-rule="evenodd" clip-rule="evenodd" d="M15.89 164.117C14.8189 163.617 7.85695 163.117 6.25032 163.45C4.6437 163.617 4.28665 163.617 4.10813 161.783C3.75111 159.949 4.28667 159.449 5.35775 158.949C6.42884 158.449 15.176 153.947 15.176 153.28C15.176 152.614 15.1759 145.778 15.533 144.944C15.89 144.111 18.3892 142.11 19.1032 142.61C19.8173 143.277 23.0306 150.28 23.7447 151.113C24.4587 151.947 36.2406 151.113 36.7761 151.947C37.3117 152.947 36.7762 156.615 36.2406 156.948C35.7051 157.282 26.9579 160.783 26.4224 161.616C25.8868 162.45 25.5298 171.62 24.9943 172.12C24.4587 172.787 21.781 172.62 21.067 171.786C19.9959 171.119 17.4966 165.118 15.89 164.117Z" fill="#EF4269"></path><path fill-rule="evenodd" clip-rule="evenodd" d="M9.43758 119.527C9.92709 118.91 11.3246 114.471 11.356 113.378C11.4955 112.31 11.5506 112.078 12.7676 112.245C14.0121 112.296 14.2539 112.721 14.4132 113.493C14.5725 114.264 16.1438 120.632 16.5764 120.735C17.0089 120.837 21.4424 121.891 21.9281 122.251C22.4137 122.611 23.3261 124.54 22.8916 124.926C22.349 125.287 17.312 126.292 16.6613 126.626C16.0106 126.961 14.7351 134.731 14.1119 134.95C13.3805 135.143 11.0841 134.23 10.9504 133.832C10.8167 133.433 9.89421 127.22 9.43609 126.744C8.97797 126.268 3.0856 124.623 2.84375 124.199C2.49376 123.749 3.01465 122.037 3.66539 121.703C4.26303 121.111 8.54112 120.415 9.43758 119.527Z" fill="#373A9A"></path><path fill-rule="evenodd" clip-rule="evenodd" d="M1076.65 143.514C1075.82 144.127 1073.08 149.227 1072.72 150.473C1072.35 151.718 1072.09 152.002 1070.57 151.514C1069.01 151.061 1068.79 150.591 1068.71 149.533C1068.67 148.508 1068.07 140.253 1067.58 139.999C1067.09 139.744 1061.52 137.223 1060.91 136.596C1060.34 135.934 1059.56 133.365 1060.3 133.062C1061.04 132.76 1067.88 132.906 1068.84 132.732C1069.75 132.526 1073.19 123.328 1074.11 123.258C1075.03 123.188 1077.87 125.028 1077.92 125.471C1077.97 125.914 1077.85 133.957 1078.29 134.693C1078.76 135.461 1086.05 139.113 1086.35 139.718C1086.65 140.322 1085.67 142.378 1084.72 142.62C1083.81 142.963 1077.98 142.573 1076.65 143.514Z" fill="#161453"></path><path fill-rule="evenodd" clip-rule="evenodd" d="M1088.97 157.846C1088.87 158.411 1089.69 161.526 1090.01 162.17C1090.33 162.813 1090.33 163.028 1089.53 163.407C1088.72 163.813 1088.45 163.706 1088.02 163.304C1087.62 162.902 1084.25 159.769 1083.95 159.85C1083.66 159.932 1080.43 161.016 1079.95 160.991C1079.47 160.938 1078.17 160.19 1078.36 159.786C1078.55 159.383 1081.39 156.848 1081.71 156.417C1082 155.987 1079.92 150.941 1080.27 150.564C1080.62 150.187 1082.47 149.859 1082.66 150.019C1082.85 150.18 1085.84 153.503 1086.3 153.636C1086.78 153.769 1091.14 152.493 1091.49 152.626C1091.84 152.759 1092.22 153.967 1091.92 154.425C1091.68 154.909 1089.16 156.959 1088.97 157.846Z" fill="#EF4068"></path></svg>