<svg xmlns="http://www.w3.org/2000/svg" width="51" height="41" viewBox="0 0 51 41" fill="none"><path d="M19.3403 35.2072C16.7861 38.9454 12.5602 41.133 8.34937 39.5388C4.35322 38.0261 1.2361 34.0339 0.422978 29.5278C-0.111385 26.5693 0.291151 23.3218 1.91918 20.8859C2.62835 19.8372 3.55402 18.9847 4.62148 18.3972C5.68893 17.8097 6.86827 17.5036 8.06436 17.5037C9.78501 17.5037 14.0056 19.0552 14.8223 16.4778C15.7129 13.6608 12.7169 9.79952 11.0461 7.98233C8.99059 5.75206 6.48799 3.89899 3.94887 2.37852C3.66299 2.20786 3.34328 1.99065 3.29875 1.63769C2.97635 -0.893188 10.4753 0.315029 11.5627 0.635025C15.036 1.66095 18.0686 4.29463 19.9932 7.57701C24.6234 15.4809 24.5183 27.6311 19.3403 35.2072Z" fill="#4548C4"></path><path d="M46.49 35.2072C43.9357 38.9454 39.7098 41.133 35.499 39.5388C31.5029 38.0261 28.3858 34.0339 27.5726 29.5278C27.0383 26.5693 27.4408 23.3218 29.0688 20.8859C29.778 19.8372 30.7037 18.9847 31.7711 18.3972C32.8386 17.8097 34.0179 17.5036 35.214 17.5037C36.9347 17.5037 41.1553 19.0552 41.972 16.4778C42.8626 13.6608 39.8665 9.79952 38.1958 7.98233C36.1402 5.75206 33.6376 3.89899 31.0985 2.37852C30.8126 2.20786 30.4929 1.99065 30.4484 1.63769C30.126 -0.893188 37.6249 0.315029 38.7123 0.635025C42.1857 1.66095 45.2182 4.29463 47.1428 7.57701C51.7731 15.4809 51.668 27.6311 46.49 35.2072Z" fill="#4548C4"></path></svg>