<svg xmlns="http://www.w3.org/2000/svg" width="51" height="41" viewBox="0 0 51 41" fill="none"><path d="M31.6597 35.2072C34.2139 38.9454 38.4398 41.133 42.6506 39.5388C46.6468 38.0261 49.7639 34.0339 50.577 29.5278C51.1114 26.5693 50.7088 23.3218 49.0808 20.8859C48.3717 19.8372 47.446 18.9847 46.3785 18.3972C45.3111 17.8097 44.1317 17.5036 42.9356 17.5037C41.215 17.5037 36.9944 19.0552 36.1777 16.4778C35.2871 13.6608 38.2831 9.79952 39.9539 7.98233C42.0094 5.75206 44.512 3.89899 47.0511 2.37852C47.337 2.20786 47.6567 1.99065 47.7013 1.63769C48.0237 -0.893188 40.5247 0.315029 39.4373 0.635025C35.964 1.66095 32.9314 4.29463 31.0068 7.57701C26.3766 15.4809 26.4817 27.6311 31.6597 35.2072Z" fill="#4548C4"></path><path d="M4.50999 35.2072C7.06425 38.9454 11.2902 41.133 15.501 39.5388C19.4971 38.0261 22.6142 34.0339 23.4274 29.5278C23.9617 26.5693 23.5592 23.3218 21.9312 20.8859C21.222 19.8372 20.2963 18.9847 19.2289 18.3972C18.1614 17.8097 16.9821 17.5036 15.786 17.5037C14.0653 17.5037 9.84472 19.0552 9.02804 16.4778C8.13743 13.6608 11.1335 9.79952 12.8042 7.98233C14.8598 5.75206 17.3624 3.89899 19.9015 2.37852C20.1874 2.20786 20.5071 1.99065 20.5516 1.63769C20.874 -0.893188 13.3751 0.315029 12.2877 0.635025C8.8143 1.66095 5.78177 4.29463 3.85717 7.57701C-0.773087 15.4809 -0.667988 27.6311 4.50999 35.2072Z" fill="#4548C4"></path></svg>