<svg xmlns="http://www.w3.org/2000/svg" width="32" height="32" viewBox="0 0 32 32" fill="none">
  <mask id="mask0_641_4592" style="mask-type:alpha" maskUnits="userSpaceOnUse" x="0" y="0" width="32" height="32">
    <rect width="32" height="32" fill="#D9D9D9"/>
  </mask>
  <g mask="url(#mask0_641_4592)">
    <path
      d="M18.5868 5.28998C21.7179 6.04735 24.4132 8.19194 25.8533 11.0737C28.8662 17.1025 25.6463 24.788 18.8549 26.6138C15.3843 27.5482 11.5802 26.6829 8.84223 24.3369C5.87037 21.7906 4.44888 17.7483 5.19659 13.9079C6.34844 7.91908 12.5986 3.85289 18.5868 5.28998ZM17.0756 14.6043C17.0739 14.5679 17.071 14.5339 17.071 14.4999C17.0706 14.1955 17.0706 13.8912 17.071 13.5868C17.071 13.5618 17.0691 13.5365 17.071 13.5115C17.0753 13.4615 17.0557 13.4371 17.0039 13.4414C16.9861 13.4429 16.9681 13.4414 16.9501 13.4414C16.144 13.4414 15.338 13.4414 14.532 13.4414C14.3914 13.4414 14.4072 13.4296 14.4072 13.5705C14.4072 16.4708 14.4072 19.3712 14.4072 22.2715C14.4072 22.2965 14.4084 22.3217 14.4072 22.3467C14.4055 22.3879 14.4247 22.4051 14.4652 22.4033C14.4937 22.4019 14.5224 22.4033 14.5513 22.4033C15.343 22.4033 16.1346 22.4033 16.9263 22.4033C17.0869 22.4033 17.0706 22.4216 17.0707 22.2609C17.0707 20.7714 17.0707 19.2819 17.0707 17.7922C17.0707 17.6133 17.0707 17.4345 17.0947 17.2563C17.1321 16.9736 17.2023 16.7012 17.3421 16.4505C17.5343 16.1064 17.8187 15.8745 18.1987 15.7639C18.4748 15.6826 18.7654 15.6635 19.0497 15.7078C19.4948 15.7767 19.8221 16.0122 20.0261 16.4156C20.0759 16.5148 20.1168 16.6181 20.1485 16.7245C20.2373 17.0182 20.2708 17.3204 20.2729 17.6254C20.2767 18.1631 20.2745 18.6996 20.2745 19.2367C20.2745 20.2572 20.2745 21.2777 20.2745 22.2981C20.2745 22.402 20.2753 22.4033 20.3694 22.4033C21.2256 22.4033 22.0818 22.4033 22.938 22.4033C23.0321 22.4033 23.0322 22.4021 23.0339 22.3091C23.0339 22.2913 23.0339 22.2733 23.0339 22.2554C23.0339 20.4399 23.0339 18.6245 23.0339 16.8092C23.0339 16.2282 22.977 15.6456 22.7715 15.1C22.4357 14.2082 21.8206 13.6068 20.9051 13.3258C20.3965 13.1683 19.8597 13.1237 19.332 13.1952C18.4011 13.3205 17.6688 13.7786 17.1309 14.5481C17.1168 14.5672 17.1108 14.5935 17.0756 14.6043ZM9.85332 22.2765C9.85332 22.4163 9.84257 22.4031 9.98123 22.4031C10.8192 22.4031 11.6573 22.4031 12.4953 22.4031C12.6407 22.4031 12.6284 22.4198 12.6284 22.2716C12.6284 19.3721 12.6284 16.4727 12.6284 13.5734C12.6284 13.5483 12.6268 13.5232 12.6284 13.4981C12.6307 13.4565 12.6112 13.4398 12.5709 13.4418C12.5459 13.4429 12.5208 13.4418 12.4956 13.4418C11.6612 13.4418 10.8269 13.4418 9.99242 13.4418C9.83439 13.4418 9.85343 13.4289 9.85343 13.5783C9.85199 16.4775 9.85332 19.3772 9.85332 22.2765ZM9.5888 10.6083C9.58783 11.525 10.317 12.2641 11.224 12.2649C12.1335 12.2661 12.8648 11.5324 12.8671 10.6165C12.8693 9.70065 12.1378 8.95959 11.2319 8.95851C10.3235 8.95744 9.58955 9.69474 9.5888 10.6083Z"
      fill="white"/>
  </g>
</svg>
