<svg xmlns="http://www.w3.org/2000/svg" width="32" height="32" viewBox="0 0 32 32" fill="none">
  <mask id="mask0_641_4596" style="mask-type:alpha" maskUnits="userSpaceOnUse" x="0" y="0" width="32" height="32">
    <rect width="32" height="32" fill="#D9D9D9"/>
  </mask>
  <g mask="url(#mask0_641_4596)">
    <path fill-rule="evenodd" clip-rule="evenodd"
          d="M16 27C22.0751 27 27 22.0751 27 16C27 9.92487 22.0751 5 16 5C9.92487 5 5 9.92487 5 16C5 22.0751 9.92487 27 16 27ZM21.927 12.2357C22.0671 12.1926 22.2033 12.1506 22.3425 12.1243C22.3701 12.0854 22.4061 12.0472 22.4435 12.094C22.4722 12.1299 22.4424 12.1489 22.4142 12.1668C22.4056 12.1723 22.3972 12.1776 22.3906 12.1833C22.1788 12.6076 21.8258 12.9195 21.4729 13.2077C21.2816 13.364 21.2371 13.5232 21.2301 13.7544C21.139 16.5717 20.0315 18.8682 17.6533 20.3413C15.1185 21.908 12.4834 21.8382 9.87796 20.4133C9.84815 20.3947 9.82084 20.3722 9.79678 20.3463C9.79294 20.3433 9.79194 20.3368 9.78941 20.3206C9.78776 20.31 9.78545 20.2951 9.78125 20.2743C10.4391 20.2988 11.0878 20.2772 11.7168 20.0827C12.3457 19.8882 12.9387 19.6209 13.4935 19.1419C12.3034 18.9964 11.5086 18.4057 11.0752 17.2798C11.175 17.2778 11.2733 17.283 11.3706 17.2881C11.6233 17.3014 11.87 17.3145 12.1248 17.2006C12.0526 17.1664 11.9829 17.1347 11.9152 17.104C11.7691 17.0376 11.6327 16.9757 11.5029 16.9023C10.7201 16.4586 10.2839 15.77 10.1617 14.8681C10.1321 14.6498 10.1525 14.5021 10.43 14.6462C10.6721 14.7723 10.9424 14.8076 11.3243 14.8443C11.2605 14.7866 11.204 14.7372 11.1528 14.6925C11.0608 14.6121 10.986 14.5468 10.917 14.4755C10.5502 14.0907 10.3028 13.6038 10.2061 13.0761C10.1094 12.5483 10.1677 12.0032 10.3735 11.5091C10.478 11.2642 10.5514 11.2627 10.7222 11.4572C12.0479 12.9685 13.6926 13.8409 15.6804 14.0332C15.9225 14.0577 15.9719 14.0318 15.9521 13.7695C15.8378 12.2972 16.6347 11.1223 17.9682 10.8161C18.8293 10.618 19.6291 10.7938 20.3068 11.3924C20.3753 11.4631 20.4622 11.5123 20.5573 11.5343C20.6523 11.5562 20.7515 11.55 20.8432 11.5163C21.1549 11.4307 21.4488 11.3027 21.7429 11.1746C21.8472 11.1291 21.9515 11.0837 22.0567 11.0401C22.0627 11.0365 22.0694 11.0314 22.0762 11.0262C22.091 11.015 22.1059 11.0038 22.1131 11.0077C22.1548 11.0308 22.1371 11.0646 22.1131 11.0949C21.9607 11.6316 21.5887 12.0061 21.1249 12.3958C21.4282 12.3894 21.6835 12.3108 21.927 12.2357Z"
          fill="white"/>
  </g>
</svg>
