<svg xmlns="http://www.w3.org/2000/svg" width="32" height="32" viewBox="0 0 32 32" fill="none">
  <mask id="mask0_641_4586" style="mask-type:alpha" maskUnits="userSpaceOnUse" x="0" y="0" width="32" height="32">
    <rect width="32" height="32" fill="#D9D9D9"/>
  </mask>
  <g mask="url(#mask0_641_4586)">
    <path
      d="M15.9345 27.0002C9.75873 26.9823 4.88345 21.8834 5.00225 15.7825C5.11913 9.7731 10.0562 4.8863 16.1573 5.00201C22.157 5.11607 27.0265 10.1233 26.8751 16.2769C26.7294 22.2029 21.9139 26.9897 15.9343 27.0002H15.9345ZM15.9356 11.6809C14.5959 11.6809 13.2561 11.6798 11.9164 11.6811C10.6 11.6825 9.63801 12.6472 9.63554 13.9717C9.6328 15.4169 9.6328 16.8621 9.63554 18.3073C9.63801 19.6284 10.603 20.5981 11.918 20.5989C14.6022 20.6008 17.2861 20.6011 19.9703 20.5989C21.2763 20.5978 22.2407 19.6257 22.2426 18.3125C22.2445 16.8582 22.2434 15.4039 22.2423 13.9493C22.2423 13.8391 22.2418 13.7276 22.2256 13.619C22.0555 12.4751 21.1454 11.6836 19.9963 11.6817C18.6429 11.6795 17.2894 11.6811 15.9359 11.6811L15.9356 11.6809Z"
      fill="white"/>
    <path
      d="M14.6134 17.8851V14.3643C15.7287 14.9464 16.8193 15.5159 17.9407 16.1011C16.8229 16.7004 15.7279 17.2875 14.6134 17.8851Z"
      fill="white"/>
  </g>
</svg>
