<svg xmlns="http://www.w3.org/2000/svg" width="135" height="101" viewBox="0 0 135 101" fill="none"><mask id="mask0_429_3087" style="mask-type:alpha" maskUnits="userSpaceOnUse" x="0" y="0" width="202" height="101"><rect width="202" height="101" transform="matrix(-1 0 0 1 202 0)" fill="#D9D9D9"></rect></mask><g mask="url(#mask0_429_3087)"><path fill-rule="evenodd" clip-rule="evenodd" d="M27.4211 60.0313C27.0858 60.0241 25.4326 60.7946 25.0974 61.0425C24.7621 61.2903 24.6551 61.3082 24.3555 60.9016C24.0559 60.495 24.0737 60.3255 24.261 60.0545C24.4482 59.7834 25.8607 57.5863 25.7929 57.4275C25.7251 57.2688 24.7871 55.58 24.7621 55.3035C24.7353 55.0289 25.035 54.2281 25.2757 54.2906C25.5165 54.353 27.2214 55.7012 27.4925 55.8278C27.7635 55.9545 30.378 54.2763 30.6276 54.4368C30.8791 54.5991 31.2411 55.6049 31.1698 55.7244C31.0985 55.8439 29.5309 57.852 29.5005 58.1338C29.4684 58.4155 30.6223 60.7321 30.5866 60.9408C30.5527 61.1495 29.9018 61.4883 29.6183 61.3706C29.3329 61.2511 27.933 60.042 27.4211 60.0313Z" fill="#EAF0F7"></path><path fill-rule="evenodd" clip-rule="evenodd" d="M60.8306 91.2748C60.5988 91.2695 59.4574 91.8027 59.2256 91.9739C58.9937 92.1451 58.9206 92.1576 58.7137 91.8758C58.5069 91.594 58.5193 91.4781 58.6477 91.2909C58.7761 91.1036 59.7534 89.586 59.7053 89.4754C59.6589 89.3648 59.0098 88.1985 58.9919 88.0077C58.9741 87.8168 59.181 87.264 59.3468 87.3068C59.5127 87.3496 60.6915 88.2823 60.8788 88.3697C61.066 88.4571 62.8726 87.2979 63.0456 87.4085C63.2186 87.5208 63.4682 88.2145 63.4201 88.2984C63.3719 88.3804 62.2876 89.7679 62.2662 89.9623C62.2448 90.1566 63.0402 91.7581 63.017 91.9026C62.9938 92.047 62.5444 92.2806 62.3483 92.1986C62.1521 92.1184 61.1855 91.282 60.8306 91.2748Z" fill="#EAF0F7"></path><path d="M54.4088 72.0121C55.9621 73.1357 49.171 77.0413 50.2428 79.0315C51.5108 81.3874 58.4981 78.7783 62.1076 70.7941C63.3132 68.1261 65.5317 62.9097 72.9649 66.4069C80.398 69.9042 86.7558 77.4372 98.6652 78.0952C98.6652 78.0952 113.114 80.2068 116.991 68.4525C120.868 56.6982 101.825 66.6745 116.155 73.0911C130.484 79.5077 150.563 61.5383 145.506 41.7856C142.052 28.3041 139.495 14.3907 143.648 4.39136" stroke="#4548C4" stroke-width="2" stroke-miterlimit="10" stroke-linecap="round" stroke-linejoin="round"></path><path d="M49.9861 78.0185C49.9861 78.0185 47.2665 79.7306 45.6293 77.6048C43.6141 74.9885 50.2947 71.9621 50.5194 69.2354" stroke="#4548C4" stroke-width="2" stroke-miterlimit="10" stroke-linecap="round" stroke-linejoin="round"></path><path d="M45.1334 76.057C44.6483 77.0664 40.3201 77.5907 41.1261 74.0632C41.9322 70.5374 46.462 68.4919 46.7884 65.8364" stroke="#4548C4" stroke-width="2" stroke-miterlimit="10" stroke-linecap="round" stroke-linejoin="round"></path><path d="M34.5832 74.6797C34.5832 74.6797 31.9349 74.9275 31.2768 72.8945C30.8435 71.557 31.5533 70.4976 33.5792 70.4281C35.7228 70.355 37.1995 69.6684 38.5941 68.1667" stroke="#4548C4" stroke-width="2" stroke-miterlimit="10" stroke-linecap="round" stroke-linejoin="round"></path><path fill-rule="evenodd" clip-rule="evenodd" d="M40.3541 80.8624C36.6031 73.3492 29.047 71.2663 26.3164 70.5599C23.6607 69.8908 8.92261 65.8367 5.53782 76.9152L4.90631 79.4974C3.75475 84.2128 4.9965 89.1488 11.9923 91.5692L23.8499 94.6926C24.5981 94.9907 25.3463 95.214 26.057 95.3999C26.8127 100.337 30.926 100.592 30.926 100.592C28.6043 98.426 30.0596 96.5906 30.8436 95.8412C39.2179 95.1918 43.1298 86.3945 40.3541 80.8624Z" fill="#EF4068"></path><path d="M42.6296 69.5253C42.6296 69.5253 36.5714 84.2828 34.2031 80.461C31.8347 76.6375 39.9634 67.7473 39.9634 67.7473L42.6296 69.5253Z" fill="#EDF5FF"></path><path d="M41.4222 73.0158C41.4222 73.0158 36.9459 82.8173 34.2013 80.4614C32.1308 78.6834 38.2977 66.8346 44.3077 61.0689C50.3177 55.3033 57.2176 54.0816 61.9686 54.0567C73.1896 54.0014 83.0071 57.224 95.1555 78.0895C95.1555 78.0895 99.1254 89.2553 113.763 93.0575C128.401 96.8614 147.23 90.3039 163.753 62.3423C172.331 47.8265 182.31 43.3556 189.924 42.4124" stroke="#4548C4" stroke-width="2" stroke-miterlimit="10" stroke-linecap="round" stroke-linejoin="round"></path><path fill-rule="evenodd" clip-rule="evenodd" d="M16.9055 58.8164C16.9306 58.6056 17.5151 57.499 17.7188 57.2866C17.897 57.0583 17.9309 57.004 17.6667 56.8012C17.4194 56.5713 17.2918 56.6048 17.1134 56.7198C16.935 56.8348 15.4139 57.7339 15.3117 57.67C15.2094 57.6061 14.1613 56.9515 13.9995 56.9259C13.8378 56.9004 13.2937 57.0888 13.3025 57.2453C13.337 57.4178 14.1055 58.577 14.1655 58.7655C14.2255 58.9539 12.9786 60.6657 13.0556 60.827C13.1581 61.0042 13.7714 61.2741 13.8734 61.2246C13.9754 61.1751 15.343 60.1802 15.5217 60.1786C15.7004 60.177 17.1403 61.0009 17.2679 60.9673C17.421 60.9497 17.6498 60.5266 17.5898 60.3382C17.5893 60.1114 16.9063 59.1565 16.9055 58.8164Z" fill="#EF4269"></path><path fill-rule="evenodd" clip-rule="evenodd" d="M4.85818 62.2159C4.61897 61.9469 4.14063 60.0531 4.11411 59.6095C4.08758 59.1659 4.04113 59.0675 3.49421 59.0799C2.94849 59.1126 2.83446 59.2408 2.73248 59.5707C2.6305 59.9005 1.75522 62.5633 1.57694 62.6347C1.39744 62.6859 -0.649683 63.0511 -0.882578 63.2269C-1.13689 63.3838 -1.59637 64.1802 -1.3834 64.3496C-1.17164 64.4988 1.11044 65.0099 1.40305 65.1543C1.69565 65.2987 2.07528 68.5947 2.38569 68.6975C2.6961 68.8004 3.76824 68.4125 3.82044 68.2677C3.87263 68.1229 4.48395 65.4557 4.69422 65.2408C4.90449 65.0259 7.62676 64.4179 7.77881 64.2469C7.93085 64.076 7.76377 63.317 7.46996 63.1524C7.17494 62.9677 5.20809 62.6401 4.85818 62.2159Z" fill="#4548C4"></path><path fill-rule="evenodd" clip-rule="evenodd" d="M7.66482 53.3202C7.58174 53.2065 7.43118 52.4333 7.43775 52.2454C7.44432 52.0574 7.418 52.0135 7.19839 52.0202C6.97878 52.0269 6.9319 52.073 6.88173 52.2131C6.83156 52.3532 6.44256 53.42 6.38252 53.4442C6.30521 53.4644 5.51395 53.5868 5.40703 53.6571C5.3001 53.7274 5.11834 54.0459 5.19649 54.1016C5.27052 54.1753 6.1646 54.3984 6.26002 54.4581C6.37271 54.5217 6.44763 55.8649 6.56443 55.9106C6.68123 55.9562 7.11468 55.8089 7.12702 55.7549C7.15663 55.7048 7.43788 54.6324 7.53164 54.5401C7.6254 54.4479 8.69137 54.2366 8.74236 54.1725C8.81063 54.1123 8.7555 53.7966 8.64693 53.715C8.5474 53.6733 7.78739 53.4998 7.66482 53.3202Z" fill="#161453"></path></g></svg>