<?xml version="1.0" encoding="UTF-8"?> <svg xmlns="http://www.w3.org/2000/svg" width="261" height="133" fill="none"><path fill="#EAF0F7" fill-rule="evenodd" d="M223.533 77.026c.458-.01 2.717 1.036 3.175 1.373.458.336.605.36 1.014-.192.409-.551.385-.781.129-1.15-.256-.367-2.186-3.349-2.093-3.564.093-.216 1.374-2.508 1.408-2.883.037-.372-.372-1.46-.701-1.374-.329.084-2.659 1.914-3.029 2.086-.371.172-3.943-2.106-4.284-1.888-.343.22-.838 1.585-.741 1.748.098.162 2.24 2.887 2.281 3.27.044.382-1.533 3.525-1.484 3.808.046.284.936.743 1.323.584.39-.162 2.303-1.803 3.002-1.818ZM177.885 119.426c.317-.008 1.876.716 2.193.948.317.233.416.25.699-.133.283-.382.266-.539.09-.794-.175-.254-1.51-2.313-1.445-2.463.064-.15.951-1.733.975-1.992.024-.259-.258-1.009-.485-.951-.227.058-1.837 1.324-2.093 1.442-.256.119-2.724-1.454-2.961-1.304-.236.152-.577 1.094-.511 1.207.065.112 1.547 1.995 1.576 2.258.029.264-1.057 2.438-1.026 2.634.032.196.646.513.914.401.268-.109 1.589-1.244 2.074-1.253Z" clip-rule="evenodd"></path><path stroke="#4548C4" stroke-linecap="round" stroke-linejoin="round" stroke-miterlimit="10" stroke-width="2" d="M186.659 93.285c-2.122 1.525 7.157 6.825 5.692 9.526-1.732 3.197-11.279-.344-16.211-11.18-1.647-3.62-4.679-10.699-14.835-5.953-10.156 4.746-18.843 14.969-35.115 15.862 0 0-19.742 2.866-25.04-13.086-5.297-15.951 20.722-2.413 1.143 6.295S55.279 79.071 62.19 52.265c4.72-18.295 8.213-37.177 2.539-50.746"></path><path stroke="#4548C4" stroke-linecap="round" stroke-linejoin="round" stroke-miterlimit="10" stroke-width="2" d="M192.702 101.436s3.716 2.323 5.953-.561c2.753-3.55-6.375-7.658-6.682-11.358"></path><path stroke="#4548C4" stroke-linecap="round" stroke-linejoin="round" stroke-miterlimit="10" stroke-width="2" d="M199.332 98.774c.663 1.37 6.577 2.081 5.476-2.706-1.102-4.784-7.291-7.56-7.737-11.164M213.748 96.905s3.618.336 4.517-2.423c.592-1.815-.377-3.252-3.145-3.347-2.929-.099-4.947-1.03-6.852-3.069"></path><path fill="#EF4068" fill-rule="evenodd" d="M205.862 105.295c5.126-10.196 15.45-13.022 19.181-13.98 3.628-.909 23.765-6.41 28.39 8.624l.863 3.504c1.573 6.399-.123 13.098-9.682 16.382l-16.201 4.239a26.076 26.076 0 0 1-3.016.96c-1.032 6.699-6.653 7.046-6.653 7.046 3.173-2.94 1.184-5.43.113-6.447-11.442-.882-16.787-12.82-12.995-20.328Z" clip-rule="evenodd"></path><path fill="#EDF5FF" d="M202.753 89.91s8.278 20.027 11.514 14.841c3.236-5.19-7.871-17.254-7.871-17.254l-3.643 2.413Z"></path><path stroke="#4548C4" stroke-linecap="round" stroke-linejoin="round" stroke-miterlimit="10" stroke-width="2" d="M204.403 94.647s6.116 13.302 9.867 10.105c2.829-2.413-5.598-18.493-13.809-26.317-8.212-7.825-17.64-9.483-24.131-9.517-15.332-.075-28.746 4.299-45.344 32.615 0 0-5.425 15.153-25.425 20.312-20 5.163-45.727-3.736-68.303-41.682-11.72-19.7-25.355-25.767-35.758-27.047"></path><path fill="#EF4269" fill-rule="evenodd" d="M237.901 75.378c-.035-.287-.833-1.788-1.112-2.076-.243-.31-.289-.384.072-.66.338-.311.512-.266.756-.11.243.156 2.322 1.377 2.461 1.29.14-.087 1.572-.975 1.793-1.01.221-.035.965.221.953.434-.047.234-1.098 1.807-1.179 2.062-.082.256 1.621 2.58 1.516 2.798-.14.24-.978.607-1.117.54-.14-.068-2.008-1.418-2.253-1.42-.244-.002-2.211 1.116-2.385 1.07-.21-.023-.522-.598-.44-.853 0-.308.934-1.604.935-2.065Z" clip-rule="evenodd"></path><path fill="#4548C4" fill-rule="evenodd" d="M254.361 79.99c.327-.364.981-2.934 1.017-3.536.036-.602.1-.736.847-.719.746.044.902.218 1.041.666.139.448 1.335 4.061 1.579 4.158.245.07 3.042.565 3.36.804.348.213.976 1.293.685 1.523-.29.203-3.408.897-3.808 1.092-.4.196-.918 4.67-1.342 4.809-.424.14-1.889-.387-1.961-.583-.071-.197-.906-3.816-1.194-4.108-.287-.292-4.006-1.117-4.214-1.349-.208-.232.02-1.262.422-1.485.403-.25 3.09-.695 3.568-1.271Z" clip-rule="evenodd"></path><path fill="#161453" fill-rule="evenodd" d="M250.527 67.919c.113-.154.319-1.204.31-1.459-.009-.255.027-.314.327-.305.3.009.364.071.433.261.068.19.6 1.638.682 1.671.105.028 1.186.194 1.333.29.146.095.394.527.287.602-.101.1-1.323.403-1.453.484-.154.087-.256 1.91-.416 1.971-.159.062-.752-.138-.769-.211-.04-.068-.424-1.523-.552-1.648-.129-.126-1.585-.412-1.655-.5-.093-.081-.018-.51.131-.62.136-.057 1.174-.292 1.342-.536Z" clip-rule="evenodd"></path></svg> 