<svg xmlns="http://www.w3.org/2000/svg" width="67" height="56" viewBox="0 0 67 56" fill="none">
  <path d="M11.0766 0.715332L0.5 12.8742L33.3551 55.8806L66.8853 12.8742L55.6336 0.715332H11.0766Z" fill="#F8FBFF"></path>
  <path d="M13.2536 3.38501L4.17044 13.8233L33.4006 51.4979L63.0632 13.8233L53.4002 3.38501H13.2536Z" fill="#161453"></path>
  <path d="M37.2466 19.095C39.4079 19.095 41.5411 19.0671 43.6743 19.0671C43.7024 19.095 43.7305 19.123 43.7305 19.151C43.7024 21.2493 43.955 23.3755 43.5059 25.4458C42.5796 29.7263 38.9027 33.0835 34.552 33.6151C29.4435 34.2306 24.756 31.293 23.1281 26.425C21.1352 20.4659 24.9245 13.9753 31.1276 12.8002C31.8013 12.6603 32.4749 12.6324 33.1486 12.6044C34.3555 12.5764 35.5344 12.5764 36.7414 12.5764C36.8817 12.5764 37.022 12.5764 37.1904 12.6044C37.1904 14.7586 37.2185 16.8849 37.2185 19.0671C37.0782 19.0671 36.9378 19.0671 36.7975 19.0671C35.5905 19.0671 34.3836 19.0671 33.1767 19.095C31.0715 19.123 29.3031 20.7177 29.1347 22.788C28.9663 24.9422 30.3978 26.8446 32.5311 27.2083C34.6082 27.572 36.601 26.2571 37.1624 24.2148C37.2466 23.8791 37.2747 23.5434 37.3027 23.2077C37.3027 22.0606 37.3027 20.9135 37.3027 19.7385C37.2466 19.4867 37.2466 19.2909 37.2466 19.095Z" fill="white"></path>
  <path d="M44.2255 16.7693C43.8583 16.8543 43.7453 16.6844 43.6606 16.3727C43.4064 15.5512 43.1239 14.7863 42.8697 13.9647C42.7849 13.6814 42.6155 13.4831 42.333 13.3981C41.5139 13.1432 40.6947 12.8599 39.8473 12.5766C39.5931 12.4916 39.4519 12.3783 39.4801 12.095C39.5084 11.84 39.4519 11.585 39.8191 11.4717C40.6665 11.2168 41.4856 10.9051 42.333 10.6218C42.6155 10.5368 42.7849 10.3669 42.8697 10.0836C43.1239 9.23369 43.4346 8.41213 43.6606 7.56225C43.7736 7.19397 44.0278 7.25063 44.282 7.2223C44.5362 7.19397 44.6492 7.30729 44.7339 7.53392C45.0164 8.38381 45.2989 9.23369 45.5813 10.0836C45.6661 10.3385 45.8072 10.5085 46.0897 10.5935C46.9371 10.8485 47.7563 11.1601 48.6037 11.4151C48.9709 11.5284 48.9144 11.7833 48.9426 12.0383C48.9708 12.3216 48.8296 12.4349 48.5754 12.5199C47.7562 12.7749 46.9654 13.0865 46.1463 13.3415C45.8355 13.4265 45.6661 13.6248 45.5813 13.9364C45.3271 14.7296 45.0446 15.5228 44.7904 16.3444C44.6774 16.6843 44.5645 16.911 44.2255 16.7693Z" fill="#EF4068"></path>
</svg>
